<?xml version="1.0" encoding="iso-8859-1"?>
<!-- Generator: Adobe Illustrator 16.0.0, SVG Export Plug-In . SVG Version: 6.00 Build 0)  -->
<!DOCTYPE svg PUBLIC "-//W3C//DTD SVG 1.1//EN" "http://www.w3.org/Graphics/SVG/1.1/DTD/svg11.dtd">
<svg version="1.1" id="Calque_1" xmlns="http://www.w3.org/2000/svg" xmlns:xlink="http://www.w3.org/1999/xlink" x="0px" y="0px" viewBox="0 0 98 89.822" style="enable-background:new 0 0 98 89.822;" xml:space="preserve">
<g>
	<g>
		<path style="fill:#F1F1F1;" d="M5.757,86.354c-1.632,0-3-0.569-4.103-1.708C0.551,83.508,0,82.114,0,80.464c0-1.648,0.551-3.042,1.655-4.181
			c1.103-1.139,2.471-1.708,4.103-1.708c1.631,0,2.999,0.569,4.102,1.708s1.655,2.532,1.655,4.181c0,1.65-0.552,3.044-1.655,4.182
			C8.756,85.784,7.389,86.354,5.757,86.354z M5.766,75.297c-1.415,0-2.588,0.499-3.521,1.496c-0.933,0.998-1.399,2.223-1.399,3.671
			c0,1.45,0.466,2.671,1.399,3.663c0.933,0.991,2.107,1.487,3.521,1.487c1.414,0,2.585-0.496,3.512-1.487
			c0.927-0.992,1.391-2.213,1.391-3.663c0-1.448-0.464-2.673-1.391-3.671C8.351,75.796,7.18,75.297,5.766,75.297z"/>
		<path style="fill:#F1F1F1;" d="M15.018,74.804c0.833-0.07,1.69-0.105,2.57-0.105s1.634,0.212,2.263,0.634c0.627,0.423,0.942,1.039,0.942,1.849
			c0,0.61-0.165,1.174-0.493,1.69s-0.728,0.909-1.197,1.18c0.763,0.223,1.397,0.622,1.902,1.197
			c0.504,0.575,0.757,1.227,0.757,1.954c0,1.01-0.32,1.772-0.959,2.289c-0.64,0.517-1.541,0.774-2.703,0.774
			s-2.189-0.041-3.081-0.123V74.804z M20,77.163c0-0.575-0.241-1.018-0.722-1.329c-0.481-0.312-1.057-0.467-1.726-0.467
			s-1.244,0.018-1.725,0.053v4.313c1.021,0,1.836,0.029,2.447,0.088c0.458-0.246,0.859-0.607,1.206-1.082
			C19.828,78.264,20,77.738,20,77.163z M16.62,80.403l-0.792,0.017v5.054c0.504,0.047,1.32,0.07,2.447,0.07
			c0.763,0,1.394-0.214,1.893-0.643c0.499-0.429,0.748-0.969,0.748-1.62s-0.25-1.221-0.748-1.708
			c-0.499-0.486-1.147-0.83-1.946-1.03C17.812,80.45,17.277,80.403,16.62,80.403z"/>
		<path style="fill:#F1F1F1;" d="M25.106,84.875V74.751h0.792v9.613c0,0.95-0.147,1.79-0.44,2.518s-0.634,1.291-1.021,1.69
			c-0.388,0.399-0.887,0.815-1.497,1.25l-0.37-0.528C24.261,88.062,25.106,86.589,25.106,84.875z"/>
		<path style="fill:#F1F1F1;" d="M30.124,86.178V74.751h5.334v0.705h-4.524v4.154h4.084v0.687h-4.084v5.142h4.701v0.739H30.124z"/>
		<path style="fill:#F1F1F1;" d="M47.766,85.614c-0.881,0.493-2.104,0.739-3.671,0.739c-1.567,0-2.946-0.563-4.137-1.69s-1.787-2.526-1.787-4.199
			c0-1.672,0.52-3.072,1.558-4.198c1.039-1.127,2.379-1.69,4.023-1.69c1.327,0,2.624,0.205,3.891,0.616l-0.211,0.669
			c-1.221-0.376-2.482-0.563-3.785-0.563s-2.397,0.496-3.284,1.488c-0.886,0.991-1.329,2.206-1.329,3.645
			c0,1.438,0.513,2.661,1.541,3.671c1.027,1.009,2.215,1.514,3.565,1.514s2.471-0.188,3.363-0.563L47.766,85.614z"/>
		<path style="fill:#F1F1F1;" d="M52.695,75.473h-3.874v-0.722h8.539v0.722h-3.873v10.705h-0.792V75.473z"/>
		<path style="fill:#F1F1F1;" d="M59.755,86.178V74.751h0.811v11.427H59.755z"/>
		<path style="fill:#F1F1F1;" d="M64.791,86.178V74.751h5.862v0.705h-5.053v4.154h4.612v0.687h-4.612v5.881H64.791z"/>
	</g>
	<g>
		<g>
			<path style="fill:#E91E63;" d="M77.711,80.505c0.453-0.702,0.926-1.396,1.417-2.081s0.963-1.379,1.417-2.081h-3.87V75.42h5.44
				c-0.453,0.659-0.909,1.317-1.368,1.976s-0.915,1.322-1.368,1.991c0.398,0.076,0.773,0.208,1.125,0.397
				c0.351,0.188,0.655,0.429,0.915,0.721c0.259,0.291,0.461,0.623,0.607,0.995c0.146,0.373,0.219,0.774,0.219,1.207
				c0,0.475-0.093,0.92-0.276,1.335c-0.183,0.416-0.434,0.78-0.753,1.094c-0.318,0.313-0.688,0.561-1.108,0.745
				c-0.421,0.183-0.869,0.274-1.345,0.274c-0.507,0-0.979-0.103-1.416-0.308c-0.438-0.204-0.813-0.48-1.126-0.825l0.696-0.664
				c0.216,0.27,0.48,0.483,0.794,0.64s0.658,0.234,1.036,0.234c0.346,0,0.675-0.067,0.987-0.202
				c0.313-0.135,0.586-0.318,0.818-0.551c0.231-0.232,0.415-0.499,0.55-0.801c0.136-0.303,0.203-0.627,0.203-0.972
				c0-0.356-0.067-0.688-0.203-0.997c-0.135-0.307-0.318-0.574-0.55-0.801c-0.232-0.227-0.505-0.404-0.818-0.534
				c-0.313-0.13-0.642-0.194-0.987-0.194C78.369,80.181,78.024,80.288,77.711,80.505z"/>
			<path style="fill:#E91E63;" d="M98,74.497c-0.27,0.669-0.559,1.393-0.866,2.17s-0.618,1.567-0.931,2.372
				c-0.313,0.805-0.621,1.595-0.924,2.372c-0.302,0.777-0.582,1.5-0.842,2.17c-0.259,0.67-0.488,1.263-0.688,1.781
				c-0.199,0.519-0.348,0.912-0.444,1.182l-2.526-6.525c-0.022-0.043-0.047-0.097-0.073-0.162c-0.026-0.064-0.046-0.124-0.057-0.178
				c-0.011,0.021-0.021,0.054-0.032,0.097c-0.011,0.044-0.021,0.081-0.032,0.113c-0.011,0.044-0.022,0.087-0.032,0.13
				c-0.324,0.842-0.643,1.663-0.956,2.461c-0.129,0.346-0.267,0.699-0.412,1.062c-0.146,0.361-0.289,0.72-0.43,1.076
				s-0.274,0.702-0.404,1.036c-0.13,0.335-0.243,0.637-0.341,0.907c-0.81-2.029-1.592-4.043-2.348-6.04s-1.538-4.005-2.348-6.023
				h1.247c0.205,0.528,0.426,1.099,0.663,1.708c0.238,0.61,0.476,1.223,0.713,1.838s0.467,1.218,0.688,1.806
				c0.222,0.589,0.425,1.128,0.607,1.619c0.185,0.491,0.338,0.915,0.462,1.271c0.124,0.355,0.208,0.609,0.251,0.761l0.13,0.485
				c0-0.032,0.021-0.11,0.064-0.234s0.07-0.202,0.081-0.234s0.046-0.13,0.105-0.292c0.059-0.162,0.132-0.364,0.219-0.607
				c0.086-0.243,0.186-0.516,0.299-0.817c0.113-0.303,0.229-0.609,0.349-0.923c0.28-0.734,0.589-1.555,0.923-2.462
				c-0.237-0.669-0.453-1.279-0.647-1.829c-0.086-0.237-0.17-0.47-0.251-0.696s-0.154-0.438-0.219-0.632
				c-0.065-0.194-0.122-0.358-0.17-0.494c-0.049-0.134-0.078-0.224-0.089-0.267h1.068c0.507,1.306,0.977,2.542,1.408,3.708
				c0.185,0.496,0.373,1.004,0.567,1.522c0.194,0.518,0.378,1.012,0.551,1.481c0.173,0.469,0.331,0.904,0.478,1.303
				c0.146,0.399,0.262,0.729,0.349,0.988c0.021,0.087,0.042,0.167,0.064,0.243c0.021,0.075,0.043,0.156,0.064,0.242l0.13-0.485
				c0.032-0.162,0.112-0.424,0.242-0.785s0.286-0.788,0.47-1.279s0.389-1.034,0.615-1.627c0.227-0.595,0.459-1.196,0.696-1.806
				c0.238-0.61,0.478-1.218,0.721-1.822s0.467-1.165,0.672-1.684H98z"/>
		</g>
	</g>
	<g>
		<path style="fill:#E91E63;" d="M81.075,34.958c0-18.104-14.677-32.78-32.777-32.78c-18.103,0-32.782,14.675-32.782,32.78
			c0,18.106,14.679,32.776,32.782,32.776C66.398,67.733,81.075,53.063,81.075,34.958z"/>
		<g>
			<g>
				<g>
					<g>
						<path style="fill:#C2185D;" d="M31.774,25.466l14.378,26.906c0.078,0.144,0.285,0.135,0.352-0.011l5.735-12.717
							c0.029-0.055,0.023-0.116-0.005-0.17l-7.583-14.192c-0.035-0.065-0.104-0.103-0.174-0.103H31.947
							C31.8,25.179,31.704,25.335,31.774,25.466z"/>
					</g>
				</g>
			</g>
			<path style="fill:#C2185D;" d="M50.332,29.774h17.464c0.146,0,0.238,0.145,0.18,0.275l-7.994,17.718
				c-0.068,0.146-0.273,0.154-0.35,0.011L50.16,30.06C50.089,29.93,50.184,29.774,50.332,29.774z"/>
		</g>
		<g>
			<g>
				<g>
					<g>
						<path style="fill:#EC407A;" d="M30.108,25.466l14.38,26.906c0.074,0.144,0.281,0.135,0.35-0.011l5.735-12.717
							c0.025-0.055,0.021-0.116-0.005-0.17l-7.587-14.192c-0.033-0.065-0.1-0.103-0.172-0.103h-12.53
							C30.132,25.179,30.038,25.335,30.108,25.466z"/>
					</g>
				</g>
			</g>
			<path style="fill:#EC407A;" d="M48.662,29.774H66.13c0.142,0,0.236,0.145,0.178,0.275l-7.996,17.718
				c-0.064,0.146-0.273,0.154-0.348,0.011L48.49,30.06C48.422,29.93,48.517,29.774,48.662,29.774z"/>
		</g>
		<g>
			<g>
				<g>
					<g>
						<path style="fill:#FFFFFF;" d="M28.408,25.466l14.38,26.906c0.074,0.144,0.283,0.135,0.348-0.011l5.736-12.717
							c0.024-0.055,0.022-0.116-0.005-0.17l-7.586-14.192c-0.034-0.065-0.098-0.103-0.17-0.103H28.58
							C28.431,25.179,28.337,25.335,28.408,25.466z"/>
					</g>
				</g>
			</g>
			<path style="fill:#FFFFFF;" d="M46.963,29.774h17.465c0.144,0,0.238,0.145,0.181,0.275l-7.996,17.718
				c-0.065,0.146-0.272,0.154-0.351,0.011l-9.47-17.718C46.72,29.93,46.816,29.774,46.963,29.774z"/>
		</g>
	</g>
</g>
</svg>
